<svg width="750" height="750" viewBox="0 0 750 750" fill="none" xmlns="http://www.w3.org/2000/svg">
<path d="M717.711 392.809C718.495 404.194 716.686 424.611 715.232 435.809C707.069 499.988 679.955 560.273 637.357 608.961C580.228 674.484 499.336 714.525 412.592 720.216C400.587 721.04 387.437 720.813 375.385 720.575C375.062 725.394 375.432 736.282 375.502 741.442C372.953 738.292 360.544 720 358.539 718.821C358.48 716.982 352.236 709.288 350.785 707.369C349.673 705.597 349.096 704.916 347.759 703.352C342.894 696.134 337.256 689.15 332.313 681.965C330.802 679.768 328.984 677.238 327.277 675.209C324.09 670.181 318.549 663.01 314.974 658.088C308.042 648.464 301.041 638.892 293.973 629.366L327.474 583.367C334.82 573.267 342.733 562.738 349.768 552.517C355.771 544.757 361.466 535.986 367.423 528.142C369.763 525.059 372.682 520.569 375.234 517.87C375.798 527.875 375.74 544.274 375.352 554.374C406.648 554.041 437.314 545.537 464.312 529.706C500.229 508.586 527.501 475.43 541.293 436.113C543.622 429.258 545.592 422.285 547.2 415.225C548.064 411.335 548.58 407.64 549.576 403.74C552.616 405.344 556.729 408.519 559.636 410.632L576.053 422.611L626.327 459.185C641.477 447.722 657.784 436.234 673.217 424.999L690.157 412.639C692.937 410.61 697.211 407.336 700.034 405.641C701.082 404.594 701.836 404.154 703.077 403.323C704.095 402.29 707.263 400.206 708.629 399.265C711.552 397.006 714.672 394.911 717.711 392.809Z" fill="#460073"/>
<path d="M717.711 392.809C718.495 404.194 716.686 424.611 715.232 435.809C707.069 499.988 679.955 560.273 637.357 608.961C580.228 674.484 499.336 714.525 412.592 720.216C400.587 721.04 387.437 720.813 375.385 720.575L375.22 719.967C374.908 715.851 375.048 711.061 375.07 706.886L375.011 705.311C375.498 704.509 375.406 704.363 376.904 704.337C380.977 704.271 385.009 704.238 389.073 704.048C399.738 703.645 410.369 702.686 420.934 701.177C485.574 692.003 545.973 663.633 594.302 619.739C644.813 573.973 679.698 513.523 694.05 446.895C696.68 434.553 699.459 418.29 700.034 405.641C701.082 404.594 701.836 404.154 703.077 403.323C704.095 402.29 707.263 400.206 708.629 399.265C711.552 397.006 714.672 394.911 717.711 392.809Z" fill="#DDDCDD"/>
<path d="M708.629 399.265C708.109 400.551 708.08 400.778 707.087 401.81C705.868 406.417 705.615 416.089 704.952 421.124C703.348 433.348 701.81 446.404 698.291 458.225C697.657 460.865 697.87 463.121 696.764 465.652C695.365 468.86 695.01 472.683 693.999 476.038C684.053 508.986 669.998 539.136 650.446 567.521C615.831 618.336 567.524 658.304 511.128 682.797C485.284 694.017 458.104 701.858 430.254 706.128C413.741 708.655 397.511 709.797 380.837 710.039C379.453 710.057 376.846 709.896 375.861 710.662C374.993 713.668 375.417 716.99 375.22 719.967C374.908 715.851 375.048 711.061 375.07 706.886L375.011 705.311C375.498 704.509 375.406 704.363 376.904 704.337C380.977 704.271 385.009 704.238 389.073 704.048C399.738 703.645 410.369 702.686 420.934 701.177C485.574 692.003 545.973 663.633 594.302 619.739C644.813 573.973 679.698 513.523 694.05 446.895C696.68 434.553 699.459 418.29 700.034 405.641C701.082 404.594 701.836 404.154 703.077 403.323C704.095 402.29 707.263 400.206 708.629 399.265Z" fill="#BABABB"/>
<path d="M700.034 405.641C701.082 404.594 701.836 404.154 703.077 403.323C702.795 404.608 702.77 405.066 701.763 405.736C700.14 406.813 700.47 410.42 700.272 412.376C699.133 423.64 696.101 446.184 692.527 456.552L692.827 457.057C693.856 455.936 697.079 437.637 697.837 434.766C699.287 435.901 697.108 443.741 696.698 445.697C689.377 480.718 676.366 514.761 657.718 545.332C656.51 547.313 655.697 549.543 654.225 551.287L653.782 551.803C651.412 554.616 649.226 559.219 646.904 562.258C644.689 565.151 636.013 572.512 636.698 576.317L635.999 577.35L634.805 577.137C632.93 579.309 629.879 582.059 630.04 584.678L628.978 585.729C629.059 585.165 629.136 585.015 628.993 584.458C627.019 586.699 621.361 592.493 620.38 595.536C619.999 596.719 620.145 596.971 619.069 597.905C616.099 602.058 610.69 604.647 607.489 608.254C602.717 613.627 599.403 618.106 593.965 622.991C536.572 674.546 461.66 704.253 384.562 706.359C381.877 706.436 377.611 706.454 375.07 706.886L375.011 705.311C375.498 704.509 375.406 704.363 376.904 704.337C380.977 704.271 385.009 704.238 389.073 704.048C399.738 703.645 410.369 702.686 420.934 701.177C485.574 692.003 545.973 663.633 594.302 619.739C644.813 573.973 679.698 513.523 694.05 446.895C696.68 434.553 699.459 418.29 700.034 405.641Z" fill="#A6A9AF"/>
<path d="M375.018 51.8482C373.521 41.7144 375.414 25.3913 374.359 14.4945C383.507 26.1569 393.691 40.8065 402.404 52.9581C407.82 61.3264 415.715 71.5631 421.703 79.8069L456.028 126.922C437.483 152.269 418.165 178.343 400.012 203.916C398.782 205.442 397.603 207.004 396.467 208.6C395.387 210.116 390.557 216.651 390.168 217.91L390.337 218.178C389.044 218.714 376.78 236.369 374.421 239.116C374.824 233.914 374.169 222.758 374.865 218.917L374.48 218.999C371.107 219.685 367.2 219.959 363.713 220.498C357.087 221.496 350.527 222.891 344.068 224.675C303.48 235.978 268.293 261.465 244.898 296.505C234.79 311.531 227.114 328.057 222.154 345.474C220.539 351.207 218.947 360.068 217.312 365.005C215.69 363.899 214.087 362.686 212.503 361.521C211.067 360.782 207.556 358.088 206.075 357.004C204.25 355.865 202.224 354.43 200.712 352.907C197.583 350.907 191.694 346.178 188.374 343.758L159.228 322.607L136.18 305.874C132.972 303.541 126.591 299.17 124.02 296.634C103.533 313.025 80.0698 328.085 59.0508 343.978C56.5225 345.889 53.6371 348.396 50.8971 349.834L50.373 349.482C50.6788 337.313 53.4672 321.168 56.0457 309.174C68.8231 249.886 97.9332 195.354 140.084 151.745C190.738 99.0407 257.659 64.9219 330.066 54.8855C345.831 52.7186 359.257 52.0998 375.018 51.8482Z" fill="#A100FF"/>
<path d="M262.7 242.201C264.076 241.565 269.062 237.441 270.557 236.31C302.027 212.509 336.102 203.199 374.949 201.538C375.033 203.356 374.993 205.094 374.971 206.911C374.996 208.703 375.121 211.416 374.96 213.127C374.967 214.543 375.066 217.648 374.865 218.917L374.48 218.999C371.107 219.685 367.2 219.959 363.713 220.498C357.087 221.496 350.527 222.891 344.068 224.675C303.48 235.978 268.293 261.465 244.898 296.505C234.79 311.531 227.114 328.057 222.154 345.474C220.539 351.207 218.947 360.068 217.312 365.005C215.69 363.899 214.087 362.686 212.503 361.521C211.068 360.781 207.556 358.088 206.075 357.004C204.25 355.865 202.224 354.43 200.712 352.907C204.292 327.35 213.516 302.91 227.715 281.36C231.321 275.855 235.512 271.063 239.166 265.768L243.585 260.87C248.09 255.755 252.915 250.931 258.029 246.426L262.7 242.201Z" fill="#DDDCDD"/>
<path d="M212.503 361.521L213.155 361.208L214.505 361.97C214.972 359.058 215.161 355.671 215.813 352.82C220.605 331.848 229.313 311.056 241.404 293.34C266.164 256.395 303.873 230.072 347.09 219.565C352.339 218.308 357.651 217.336 363.005 216.654C366.299 216.248 370.994 215.901 374.11 215.313C374.238 214.53 374.235 214.295 374.191 213.52L374.96 213.127C374.967 214.543 375.066 217.648 374.865 218.917L374.48 218.999C371.107 219.685 367.2 219.959 363.713 220.498C357.087 221.496 350.527 222.891 344.068 224.675C303.48 235.978 268.293 261.465 244.898 296.505C234.79 311.531 227.114 328.057 222.154 345.474C220.539 351.207 218.947 360.068 217.312 365.005C215.69 363.899 214.087 362.686 212.503 361.521Z" fill="#F6F6F5"/>
<path d="M262.7 242.201C264.076 241.565 269.062 237.441 270.557 236.31C302.027 212.509 336.102 203.199 374.949 201.538C375.033 203.356 374.993 205.094 374.971 206.911C373.535 204.841 374.96 204.633 373.942 202.726C370.316 200.097 367.947 205.95 362.265 205.052C358.867 205.296 354.57 205.492 351.294 205.914C285.561 214.368 227.984 262.287 209.367 326.172C208.712 328.421 203.705 347.964 203.307 348.367C203.03 347.866 202.763 347.36 202.505 346.849C202.418 348.387 202.364 350.25 202.162 351.75C204.897 353.493 204.992 353.891 206.075 357.004C204.25 355.865 202.224 354.43 200.712 352.907C204.292 327.35 213.516 302.91 227.715 281.36C231.321 275.855 235.512 271.063 239.166 265.768L243.585 260.87C248.09 255.755 252.915 250.931 258.029 246.426L262.7 242.201Z" fill="#A6A9AF"/>
<path d="M402.404 52.9581C417.023 54.5361 427.646 55.6439 442.2 58.6754C502.672 71.3104 558.278 100.96 602.468 144.133C606.478 148.064 610.726 152.152 614.564 156.231C617.219 159.055 622.02 163.338 624.148 166.366C629.008 170.342 636.914 179.455 641.071 184.326C668.031 215.917 691.824 258.452 703.436 298.522C710.204 318.399 714.478 343.873 716.51 364.733C716.821 367.921 717.535 374.824 717.158 377.809C723.054 377.908 732.803 378.062 738.457 377.549C733.077 381.584 722.424 388.846 717.711 392.809C714.672 394.911 711.552 397.006 708.629 399.265C707.263 400.206 704.095 402.29 703.077 403.323C701.836 404.154 701.082 404.594 700.034 405.641C697.211 407.336 692.937 410.61 690.157 412.639L673.217 424.999C657.784 436.234 641.477 447.722 626.327 459.185L576.053 422.611L559.636 410.632C556.729 408.519 552.616 405.344 549.576 403.74C548.73 402.726 541.022 397.262 539.495 396.149L514.252 377.827L551.499 377.662C550.408 368.584 550.444 360.703 548.961 351.094C543.772 317.504 529.453 287.466 507.25 261.771C505.653 259.922 502.756 257.384 500.925 255.539C498.49 254.528 486.079 245.628 482.494 243.449C468.219 234.78 456.482 230.214 440.757 225.164C429.397 221.891 417.733 219.771 405.949 218.839C400.664 218.439 395.522 218.553 390.337 218.178L390.168 217.91C390.557 216.651 395.387 210.116 396.467 208.6C397.603 207.004 398.782 205.442 400.012 203.916C418.165 178.343 437.483 152.269 456.028 126.922L421.703 79.8069C415.715 71.5631 407.82 61.3264 402.404 52.9581Z" fill="#7500C0"/>
<path d="M671.104 240.616C663.373 224.097 654.302 208.241 643.978 193.206C640.785 188.592 637.496 184.043 634.116 179.563C632.282 177.174 625.023 168.451 624.148 166.366C629.008 170.342 636.914 179.455 641.071 184.326C668.031 215.917 691.824 258.452 703.436 298.522C710.204 318.399 714.478 343.873 716.51 364.733C716.821 367.921 717.535 374.824 717.158 377.809L714.877 377.849L715.096 377.428C713.925 376.992 709.863 377.179 708.355 377.197C707.908 368.785 707.296 360.5 706.626 351.943C706.139 345.692 703.77 337.484 705.571 331.446C704.876 329.12 703.641 325.576 702.825 323.374C701.653 320.212 698.379 315.754 696.724 312.672C695.698 307.605 691.992 292.73 689.854 288.227L689.469 288.623C689.751 289.583 689.663 290.227 689.63 291.217C685.232 276.472 680.596 262.169 674.216 248.16C673.209 245.953 671.755 242.905 671.104 240.616Z" fill="#E8E8E8"/>
<path d="M671.104 240.616C663.373 224.097 654.302 208.241 643.978 193.206C640.785 188.592 637.496 184.043 634.116 179.563C632.282 177.174 625.023 168.451 624.148 166.366C629.008 170.342 636.914 179.455 641.071 184.326C668.031 215.917 691.824 258.452 703.436 298.522L703.077 299.268C701.993 297.713 700.818 293.27 700.031 291.075L699.91 291.886C700.95 294.344 705.494 311.281 705.026 313.348C703.081 311.885 699.884 298.864 699.28 298.043C698.756 300.311 699.316 300.431 699.023 301.54C697.694 298.72 696.196 292.975 695.186 290.612C692.831 285.087 674.506 241.744 671.104 240.616Z" fill="#DDDCDD"/>
<path d="M400.012 203.916C405.201 204.467 410.984 205.563 416.126 206.806C446.305 214.106 474.924 229.36 497.036 251.255C498.237 252.444 500.043 254.197 500.925 255.539C498.49 254.528 486.079 245.628 482.494 243.449C468.219 234.78 456.482 230.214 440.757 225.164C429.397 221.891 417.733 219.771 405.949 218.839C400.664 218.439 395.522 218.553 390.337 218.178L390.168 217.91C390.557 216.651 395.387 210.116 396.467 208.6C397.603 207.004 398.782 205.442 400.012 203.916Z" fill="#DDDCDD"/>
<path d="M396.467 208.6C397.192 208.203 399.155 207.134 399.88 206.972C405.765 205.661 414.69 209.023 420.381 210.557C426.149 212.111 436.168 216.063 441.401 218.927C440.489 219.077 440.673 219.227 440.035 218.904C438.472 218.112 432.33 217.958 430.624 218.132L430.338 218.375C432.169 218.894 434.191 219.907 435.659 220.021L435.597 220.354L434.161 220.926L434.539 221.028C436.08 221.452 442.625 224.008 443.782 224.807L443.848 225.182C442.753 225.501 441.899 225.294 440.757 225.164C429.397 221.89 417.733 219.771 405.949 218.839C400.664 218.439 395.522 218.553 390.337 218.177L390.168 217.91C390.557 216.651 395.387 210.116 396.467 208.6Z" fill="#E6E6E7"/>
<path d="M696.724 312.672C698.379 315.754 701.653 320.212 702.825 323.374C703.641 325.576 704.875 329.12 705.571 331.446C703.77 337.484 706.139 345.692 706.626 351.943C707.296 360.5 707.908 368.785 708.354 377.197C709.863 377.179 713.925 376.992 715.096 377.428L714.877 377.849C710.687 378.058 705.538 377.955 701.276 377.981C701.4 368.419 700.565 356.322 699.814 346.637C700.155 345.724 700.32 344.691 700.745 343.532C700.862 344.531 700.968 345.531 701.056 346.533C702.294 344.48 696.614 318.047 696.724 312.672Z" fill="#C2C2C3"/>
<path d="M689.63 291.217C689.663 290.227 689.751 289.583 689.469 288.623L689.854 288.227C691.992 292.73 695.698 307.605 696.724 312.672C696.614 318.047 702.294 344.48 701.056 346.533C700.968 345.531 700.862 344.531 700.745 343.532C700.32 344.691 700.155 345.724 699.814 346.637C698.804 341.217 698.386 333.311 697.427 327.376C695.387 314.738 692.721 303.554 689.63 291.217Z" fill="#BABABB"/>
<path d="M124.02 296.634C126.591 299.17 132.972 303.541 136.18 305.874L159.228 322.607L188.374 343.758C191.694 346.178 197.583 350.907 200.712 352.907C202.224 354.43 204.25 355.865 206.075 357.004C207.556 358.088 211.067 360.782 212.503 361.521C214.087 362.686 215.69 363.899 217.312 365.005C223.266 369.236 230.227 374.084 235.966 378.571C230.203 378.007 221.747 378.289 215.701 378.296C215.862 391.897 214.552 405.154 216.968 418.718C217.336 420.791 219.073 429.657 218.955 431.195C220.533 437.058 221.869 442.65 223.679 448.473C230.357 469.951 240.48 486.837 253.661 504.858C276.334 528.073 307.303 543.578 338.879 550.536C342.324 551.294 346.446 551.565 349.768 552.517C342.733 562.738 334.82 573.267 327.474 583.367L293.973 629.366C301.041 638.892 308.042 648.464 314.974 658.088C318.549 663.01 324.09 670.181 327.277 675.209C328.984 677.238 330.802 679.768 332.313 681.965C337.256 689.15 342.894 696.134 347.759 703.352C349.096 704.916 349.673 705.597 350.785 707.369C352.236 709.288 358.48 716.982 358.539 718.821C354.073 719.033 342.178 717.111 337.534 716.342C303.034 710.64 273.111 700.166 242.012 684.584C217.215 672.096 181.831 647.765 162.987 627.037C160.601 625.232 155.147 619.552 152.75 617.23C140.14 605.021 128.422 592.434 117.62 578.562C80.688 531.302 57.5944 474.723 50.9092 415.118C49.986 407.146 48.2007 385.975 49.1495 378.351C42.6196 378.201 35.7884 378.303 29.2378 378.281C23.6882 378.263 17.1131 378.109 11.6564 378.534C24.1138 369.207 36.9943 360.339 49.4198 350.962C49.9764 350.542 50.1493 350.106 50.373 349.482L50.8971 349.834C53.6371 348.396 56.5225 345.889 59.0508 343.978C80.0698 328.085 103.533 313.025 124.02 296.634Z" fill="black"/>
<path d="M198.772 378.234C202.729 378.193 206.49 378.157 210.45 378.288C212.2 378.274 213.951 378.278 215.701 378.296C215.862 391.897 214.552 405.154 216.968 418.718C217.336 420.791 219.073 429.657 218.955 431.195C220.533 437.058 221.869 442.65 223.679 448.473C230.357 469.951 240.48 486.837 253.661 504.858C250.182 503.463 238.905 489.466 235.694 485.969C228.643 476.462 223.207 468.234 217.782 457.698C217.786 457.712 215.766 453.413 215.552 452.941C213.571 448.627 211.713 444.258 209.981 439.838C203.792 423.702 200.156 404.824 199.253 387.623C198.688 384.906 198.792 381.105 198.772 378.234Z" fill="#DDDCDD"/>
<path d="M210.45 378.289C212.2 378.274 213.951 378.278 215.701 378.296C215.862 391.897 214.552 405.154 216.968 418.718C217.336 420.791 219.073 429.657 218.955 431.195C219.014 432.74 219.111 433.839 219.309 435.374C219.583 437.505 221.396 440.709 220.477 442.526L219.973 442.05C219.749 440.596 216.524 429.023 215.748 428.126C215.597 429.207 216.531 436.791 217.078 437.629L216.345 437.791C216.214 436.443 215.225 432.704 214.065 432.198C213.49 434.399 214.703 438.552 214.186 440.676C212.83 439.369 208.254 426.445 207.514 423.724C208.139 421.681 207.562 419.022 207.584 417.125C207.678 409.054 203.772 386.261 206.135 379.417C207.005 378.732 208.573 378.853 210.142 378.384L210.45 378.289Z" fill="#E7E7E7"/>
<path d="M198.772 378.234C202.729 378.193 206.49 378.157 210.45 378.288L210.142 378.384C208.573 378.852 207.005 378.732 206.135 379.416C203.772 386.261 207.678 409.054 207.584 417.125C207.562 419.022 208.139 421.681 207.514 423.724C204.037 416.287 200.066 388.872 199.519 380.101C199.448 382.61 199.359 385.118 199.253 387.623C198.688 384.906 198.792 381.105 198.772 378.234Z" fill="#C2C2C3"/>
<path d="M242.012 684.584C246.176 683.862 271.728 691.029 274.329 690.095C271.935 688.473 268.609 687.7 267.239 686.038C272.943 687.795 278.632 689.601 284.305 691.454C300.558 695.464 315.912 699.789 332.706 701.532C337.343 702.015 343.288 702.48 347.759 703.352C349.096 704.916 349.673 705.597 350.785 707.369C352.236 709.288 358.48 716.982 358.539 718.821C354.073 719.033 342.178 717.111 337.534 716.342C303.034 710.64 273.111 700.166 242.012 684.584Z" fill="#E5E4E5"/>
<path d="M284.305 691.454C300.558 695.464 315.912 699.789 332.706 701.532C337.343 702.015 343.288 702.48 347.759 703.352C349.096 704.916 349.673 705.597 350.785 707.369C349.945 706.985 339.876 705.93 338.063 705.699C331.969 704.923 323.119 703.656 317.273 702.847C313.445 702.316 291.001 696.801 289.089 695.219L290.201 694.948C287.558 693.977 285.01 693.01 282.293 692.252L281.813 692.12L281.648 691.743C282.237 691.428 283.535 691.487 284.305 691.454Z" fill="#BABABB"/>
<path d="M162.987 627.037C166.782 629.33 176.046 636.782 180.403 639.972C189.825 646.893 199.595 653.331 209.673 659.257C212.073 660.696 220.217 665.486 222.702 666.317C235.099 673.542 249.101 678.944 262.431 684.185C263.836 684.738 265.959 685.36 267.239 686.038C268.609 687.7 271.935 688.473 274.329 690.095C271.728 691.029 246.176 683.862 242.012 684.584C217.215 672.096 181.831 647.765 162.987 627.037Z" fill="#BABABB"/>
</svg>
